<?xml version="1.0" encoding="UTF-8" standalone="no"?>
<svg
   xmlns:dc="http://purl.org/dc/elements/1.1/"
   xmlns:cc="http://creativecommons.org/ns#"
   xmlns:rdf="http://www.w3.org/1999/02/22-rdf-syntax-ns#"
   xmlns:svg="http://www.w3.org/2000/svg"
   xmlns="http://www.w3.org/2000/svg"
   id="svg5093"
   version="1.1"
   viewBox="0 0 22.577778 22.577778"
   height="22.577778mm"
   width="22.577778mm">
  <defs
     id="defs5087">
    <clipPath
       id="clipPath54"
       clipPathUnits="userSpaceOnUse">
      <path
         id="path52"
         d="m 168,1918 c -17.686,0 -32,-14.336 -32,-32 0,-17.664 14.336,-32 32,-32 17.664,0 32,14.336 32,32 0,17.664 -14.314,32 -32,32 z m 3.886,-18.378 6.9,-10.764 -6.945,-0.022 z m -3.797,13.175 c 0.179,-0.201 2.345,-2.635 3.149,-8.039 -0.983,-0.179 -2.054,-0.29 -3.149,-0.29 -1.094,0.022 -2.166,0.111 -3.148,0.29 0.781,5.404 2.97,7.86 3.148,8.039 z m -21.951,-37.337 h 6.521 c 2.568,0 4.622,2.054 4.622,4.578 l -0.067,6.409 h 3.261 v -7.437 c 0,-0.022 -0.067,-1.473 -0.469,-2.233 -0.804,-1.496 -1.876,-2.635 -3.283,-3.483 -1.541,-0.938 -2.925,-1.117 -4.913,-1.117 h -5.672 z m 6.521,-6.9 h -6.521 v 3.193 h 5.672 c 2.077,0 3.506,0.179 5.136,1.183 1.474,0.894 2.591,2.1 3.417,3.64 0.446,0.827 0.513,2.345 0.513,2.412 v 7.436 h 3.305 v -6.409 c -0.022,-6.319 -5.18,-11.455 -11.522,-11.455 z m 11.5,20.276 -6.967,0.022 7.056,10.764 z m 3.93,-7.146 c 0,0 -1.34,1.675 -1.518,4.556 0.558,-0.045 1.139,-0.067 1.719,-0.067 0.402,0 0.804,0.022 1.184,0.022 -0.045,-2.68 -1.385,-4.511 -1.385,-4.511 z m 0.157,4.913 c -1.273,0 -2.524,0.112 -3.663,0.313 v 1.496 c 1.139,-0.201 2.39,-0.313 3.663,-0.313 1.116,0 2.188,0.089 3.215,0.246 v -1.496 c -1.027,-0.157 -2.099,-0.246 -3.215,-0.246 z m 3.215,2.188 c -1.072,-0.201 -2.233,-0.29 -3.439,-0.312 -1.183,0.022 -2.367,0.111 -3.439,0.312 0,3.752 0.067,11.947 0.067,11.97 0,1.317 0.09,2.523 0.224,3.617 0.982,-0.178 2.077,-0.29 3.193,-0.29 1.117,0.022 2.211,0.112 3.193,0.29 0.134,-1.094 0.224,-2.278 0.224,-3.617 0.022,0 -0.045,-8.218 -0.023,-11.97 z m 18.401,-20.231 h -6.521 c -6.342,0 -11.522,5.136 -11.522,11.478 v 6.409 h 3.305 v -7.437 c 0,-0.067 0.067,-1.585 0.513,-2.411 0.826,-1.563 1.965,-2.747 3.417,-3.64 1.607,-0.983 3.059,-1.184 5.136,-1.184 h 5.672 z m 0,3.595 h -5.65 c -2.01,0 -3.394,0.179 -4.913,1.116 -1.406,0.849 -2.478,2.01 -3.282,3.484 -0.402,0.759 -0.469,2.233 -0.469,2.233 v 7.436 h 3.26 l -0.067,-6.409 c 0,-2.523 2.055,-4.577 4.623,-4.577 h 6.52 v -3.283 z" />
    </clipPath>
    <clipPath
       id="clipPath62"
       clipPathUnits="userSpaceOnUse">
      <path
         id="path60"
         d="M 0,0 H 1440 V 1969 H 0 Z" />
    </clipPath>
  </defs>
  <metadata
     id="metadata5090">
    <rdf:RDF>
      <cc:Work
         rdf:about="">
        <dc:format>image/svg+xml</dc:format>
        <dc:type
           rdf:resource="http://purl.org/dc/dcmitype/StillImage" />
        <dc:title></dc:title>
      </cc:Work>
    </rdf:RDF>
  </metadata>
  <g
     style="display:inline;opacity:1"
     transform="translate(-126.29444,-142.83611)"
     id="layer1">
    <g
       style="display:inline"
       id="g48"
       transform="matrix(0.35277777,0,0,-0.35277777,78.316668,819.46387)">
      <g
         style="display:inline"
         clip-path="url(#clipPath54)"
         id="g50">
        <g
           id="g56">
          <g
             clip-path="url(#clipPath62)"
             id="g58">
            <path
               id="path64"
               style="fill:#ffffff;fill-opacity:1;fill-rule:nonzero;stroke:none"
               d="m 131,1849 h 74 v 74 h -74 z" />
          </g>
        </g>
      </g>
    </g>
  </g>
</svg>
